<?xml version="1.0" encoding="utf-8"?>
<!-- Generator: Adobe Illustrator 19.2.1, SVG Export Plug-In . SVG Version: 6.00 Build 0)  -->
<svg version="1.1" id="Layer_1" xmlns="http://www.w3.org/2000/svg" xmlns:xlink="http://www.w3.org/1999/xlink" x="0px" y="0px"
	 viewBox="0 0 24 24" style="enable-background:new 0 0 24 24;" xml:space="preserve">
<style type="text/css">
	.st0{fill:#212121;}
</style>
<title>fbook</title>
<desc>Created with Sketch.</desc>
<path id="Shape" class="st0" d="M21,3.9924107v16.0111599c0,0.5504475-0.445982,0.9924107-0.9924107,0.9924107h-4.5883932
	v-6.9669638h2.3383932l0.3495541-2.7160711h-2.6919651v-1.735714c0-0.7875004,0.2169647-1.3218756,1.3459816-1.3218756h1.4383945
	V5.8245535c-0.2491074-0.0321426-1.100893-0.1084819-2.0973225-0.1084819c-2.0732145,0-3.4955359,1.265625-3.4955359,3.5919642
	v2.0049105h-2.3464279v2.7160711h2.3464279V21H3.9924107C3.4459822,21,3,20.554018,3,20.0075893V3.9924107
	C3,3.4459822,3.4459822,3,3.9924107,3h16.0111599C20.554018,3,21,3.4459822,21,3.9924107z"/>
</svg>
