<?xml version="1.0" encoding="utf-8"?>
<!-- Generator: Adobe Illustrator 19.2.1, SVG Export Plug-In . SVG Version: 6.00 Build 0)  -->
<svg version="1.1" id="Layer_1" xmlns="http://www.w3.org/2000/svg" xmlns:xlink="http://www.w3.org/1999/xlink" x="0px" y="0px"
	 viewBox="0 0 24 24" style="enable-background:new 0 0 24 24;" xml:space="preserve">
<style type="text/css">
	.st0{fill:#212121;}
</style>
<title>insta</title>
<desc>Created with Sketch.</desc>
<path id="Shape" class="st0" d="M17.3778744,3.2337663H6.6221256c-1.8678756,0-3.3883593,1.5194528-3.3883593,3.3883593v10.7557487
	c0,1.868906,1.5204837,3.3883591,3.3883593,3.3883591h10.7557487c1.8678761,0,3.3883591-1.519453,3.3883591-3.3883591V6.6221256
	C20.7662334,4.7532191,19.2457504,3.2337663,17.3778744,3.2337663L17.3778744,3.2337663z M18.3499527,5.2552366l0.3875961-0.0020618
	v2.9719019L15.7749233,8.234354l-0.0103083-2.9719014L18.3499527,5.2552366L18.3499527,5.2552366z M9.4981594,10.2001591
	C10.0589352,9.4229088,10.9701939,8.9136753,12,8.9136753s1.9410648,0.5092335,2.5018406,1.2864838
	C14.8677874,10.7073307,15.0863247,11.3278942,15.0863247,12c0,1.7008801-1.3844137,3.0852938-3.0863247,3.0852938
	c-1.7008801,0-3.0852938-1.3844137-3.0852938-3.0852938C8.9147062,11.3278942,9.1332436,10.7073307,9.4981594,10.2001591
	L9.4981594,10.2001591z M19.0581379,17.3778744c0,0.9267216-0.7535419,1.6802635-1.6802635,1.6802635H6.6221256
	c-0.9267216,0-1.6802635-0.7535419-1.6802635-1.6802635v-7.1777153h2.6183252
	C7.3334031,10.7568111,7.2066102,11.3639736,7.2066102,12c0,2.6430645,2.1503253,4.7944202,4.7933898,4.7944202
	c2.6440954,0,4.7944202-2.1513557,4.7944202-4.7944202c0-0.6360264-0.1288548-1.2431889-0.3535767-1.7998409h2.6172943V17.3778744
	L19.0581379,17.3778744z"/>
</svg>
