<?xml version="1.0" encoding="utf-8"?>
<!-- Generator: Adobe Illustrator 19.2.1, SVG Export Plug-In . SVG Version: 6.00 Build 0)  -->
<svg version="1.1" id="Layer_1" xmlns="http://www.w3.org/2000/svg" xmlns:xlink="http://www.w3.org/1999/xlink" x="0px" y="0px"
	 viewBox="0 0 24 24" style="enable-background:new 0 0 24 24;" xml:space="preserve">
<style type="text/css">
	.st0{fill:#212121;}
</style>
<title>pinterest</title>
<desc>Created with Sketch.</desc>
<path id="Shape" class="st0" d="M21,12c0,4.9717751-4.0282249,9-9,9c-0.9290323,0-1.8217745-0.1415329-2.6637096-0.4028225
	c0.3665323-0.5987911,0.9145164-1.5786285,1.1177416-2.3588715c0.1088715-0.4209671,0.5588713-2.1411285,0.5588713-2.1411285
	c0.293952,0.5588703,1.150403,1.0342731,2.0612907,1.0342731c2.7145157,0,4.6705647-2.4967737,4.6705647-5.599596
	c0-2.9721775-2.4278231-5.196774-5.5487909-5.196774c-3.8830643,0-5.9479837,2.6056457-5.9479837,5.4471774
	c0,1.3209677,0.7040324,2.9649191,1.8254032,3.4875002c0.1705647,0.0798388,0.2612906,0.0435486,0.3012094-0.1197586
	C8.4036293,15.0266132,8.5560484,14.4133062,8.625,14.1302423c0.0217743-0.0907259,0.0108871-0.1705647-0.0616932-0.2576618
	c-0.3665323-0.4536285-0.664113-1.2810478-0.664113-2.0540323c0-1.9850807,1.5024195-3.9048386,4.0645161-3.9048386
	c2.2100801,0,3.7596769,1.5060482,3.7596769,3.6616936c0,2.4350805-1.2302418,4.1225805-2.8306446,4.1225805
	c-0.881855,0-1.5459681-0.729435-1.3318548-1.6258068c0.2540321-1.0705643,0.7439518-2.224596,0.7439518-2.9975805
	c0-0.6895161-0.370162-1.2665319-1.1395168-1.2665319c-0.9036283,0-1.6294355,0.9326611-1.6294355,2.1846771
	c0,0.7983875,0.268549,1.3354845,0.268549,1.3354845s-0.8891134,3.7669353-1.0524197,4.4709682
	c-0.1814518,0.7766113-0.1088705,1.8725796-0.0326614,2.5838699C5.3733873,19.0729847,3,15.8141127,3,12
	c0-4.9717741,4.0282259-9,9-9S21,7.0282259,21,12z"/>
</svg>
