<?xml version="1.0" encoding="utf-8"?>
<!-- Generator: Adobe Illustrator 19.2.1, SVG Export Plug-In . SVG Version: 6.00 Build 0)  -->
<svg version="1.1" id="Layer_1" xmlns="http://www.w3.org/2000/svg" xmlns:xlink="http://www.w3.org/1999/xlink" x="0px" y="0px"
	 viewBox="0 0 24 24" style="enable-background:new 0 0 24 24;" xml:space="preserve">
<style type="text/css">
	.st0{fill:#212121;}
</style>
<title>profile</title>
<desc>Created with Sketch.</desc>
<g id="profile">
	<path class="st0" d="M3,22.7275391c-0.2763672,0-0.5-0.2236328-0.5-0.5c0-2.8291016,0.2299805-6.3037109,2.0249023-8.0830078
		C5.3017578,13.3740234,6.2983398,12.9726562,7.5043945,13C7.7807617,13.0029297,8.0024414,13.2285156,8,13.5048828
		C7.9970703,13.7802734,7.7456055,13.9882812,7.4956055,14c-0.9521484-0.0146484-1.6777344,0.2714844-2.2670898,0.8554688
		C3.6791992,16.390625,3.5,19.7978516,3.5,22.2275391C3.5,22.5039062,3.2763672,22.7275391,3,22.7275391z"/>
	<path class="st0" d="M21,22.7275391c-0.2763672,0-0.5-0.2236328-0.5-0.5c0-2.4296875-0.1787109-5.8369141-1.7285156-7.3720703
		C18.1816406,14.2714844,17.4570312,14.0039062,16.5048828,14C16.5029297,14,16.5009766,14,16.5,14
		c-0.2744141,0-0.4970703-0.2207031-0.5-0.4951172C15.9970703,13.2285156,16.2197266,13.0029297,16.4951172,13
		c1.1806641-0.03125,2.2021484,0.3740234,2.9804688,1.1445312C21.2695312,15.9238281,21.5,19.3984375,21.5,22.2275391
		C21.5,22.5039062,21.2763672,22.7275391,21,22.7275391z"/>
	<path class="st0" d="M12,12.5c-3.0327148,0-5.5-2.4672852-5.5-5.5S8.9672852,1.5,12,1.5c3.0322266,0,5.5,2.4672852,5.5,5.5
		S15.0322266,12.5,12,12.5z M12,2.5C9.5185547,2.5,7.5,4.5185547,7.5,7s2.0185547,4.5,4.5,4.5s4.5-2.0185547,4.5-4.5
		S14.4814453,2.5,12,2.5z"/>
</g>
</svg>
