<?xml version="1.0" encoding="utf-8"?>
<!-- Generator: Adobe Illustrator 19.2.1, SVG Export Plug-In . SVG Version: 6.00 Build 0)  -->
<svg version="1.1" id="Layer_1" xmlns="http://www.w3.org/2000/svg" xmlns:xlink="http://www.w3.org/1999/xlink" x="0px" y="0px"
	 viewBox="0 0 24 24" style="enable-background:new 0 0 24 24;" xml:space="preserve">
<style type="text/css">
	.st0{fill:#212121;}
</style>
<title>search</title>
<desc>Created with Sketch.</desc>
<path class="st0" d="M21.3535156,20.6464844l-5.3626709-5.3626709C17.2368774,13.8728027,18,12.0259399,18,10
	c0-4.4111328-3.5888672-8-8-8s-8,3.5888672-8,8s3.5888672,8,8,8c2.0259399,0,3.8728027-0.7631226,5.2838135-2.0091553
	l5.3626709,5.3626709L21.3535156,20.6464844z M10,17c-3.8598633,0-7-3.140625-7-7c0-3.8598633,3.1401367-7,7-7
	c3.859375,0,7,3.1401367,7,7C17,13.859375,13.859375,17,10,17z"/>
</svg>
