<?xml version="1.0" encoding="utf-8"?>
<!-- Generator: Adobe Illustrator 19.2.1, SVG Export Plug-In . SVG Version: 6.00 Build 0)  -->
<svg version="1.1" id="Layer_1" xmlns="http://www.w3.org/2000/svg" xmlns:xlink="http://www.w3.org/1999/xlink" x="0px" y="0px"
	 viewBox="0 0 24 24" style="enable-background:new 0 0 24 24;" xml:space="preserve">
<style type="text/css">
	.st0{fill:#212121;}
</style>
<title>stores</title>
<desc>Created with Sketch.</desc>
<g id="ic_back">
</g>
<g id="Oval-2">
	<path class="st0" d="M12,22.0068359l-0.4018555-0.5439453c-0.2124023-0.2861328-0.4443359-0.6054688-0.6914062-0.9501953
		C10.0405273,19.3037109,9.230957,18.1044922,8.5,16.9501953c-0.5102539-0.8066406-0.9731445-1.5800781-1.3754883-2.2988281
		C5.7148438,12.1376953,5,10.2358398,5,9c0-3.8598633,3.1401367-7,7-7c3.859375,0,7,3.1401367,7,7
		c0,1.2348633-0.7148438,3.1367188-2.1240234,5.6513672C16.4716797,15.3730469,16.0087891,16.1455078,15.5,16.9501953
		c-0.7246094,1.1445312-1.5332031,2.3427734-2.40625,3.5625c-0.2480469,0.3457031-0.4794922,0.6640625-0.6914062,0.9501953
		L12,22.0068359z M12,3C8.6914062,3,6,5.6914062,6,9c0,0.7304688,0.3461914,2.21875,1.996582,5.1630859
		c0.394043,0.703125,0.8476562,1.4609375,1.3481445,2.2519531c0.7207031,1.1386719,1.5200195,2.3212891,2.375,3.515625
		C11.8154297,20.0644531,11.9091797,20.1943359,12,20.3193359c0.0908203-0.125,0.1855469-0.2548828,0.28125-0.3896484
		c0.8613281-1.203125,1.6591797-2.3857422,2.3730469-3.5146484c0.5-0.7890625,0.9541016-1.546875,1.3486328-2.2519531
		C17.6533203,11.2177734,18,9.7299805,18,9C18,5.6914062,15.3085938,3,12,3z"/>
</g>
<g id="Oval-2_1_">
	<path class="st0" d="M12,10.5c-0.8271484,0-1.5-0.6728516-1.5-1.5s0.6728516-1.5,1.5-1.5s1.5,0.6728516,1.5,1.5
		S12.8271484,10.5,12,10.5z M12,8.5c-0.2758789,0-0.5,0.2241211-0.5,0.5s0.2241211,0.5,0.5,0.5c0.2753906,0,0.5-0.2241211,0.5-0.5
		S12.2753906,8.5,12,8.5z"/>
</g>
</svg>
