<?xml version="1.0" encoding="utf-8"?>
<!-- Generator: Adobe Illustrator 19.2.1, SVG Export Plug-In . SVG Version: 6.00 Build 0)  -->
<svg version="1.1" id="Layer_1" xmlns="http://www.w3.org/2000/svg" xmlns:xlink="http://www.w3.org/1999/xlink" x="0px" y="0px"
	 viewBox="0 0 24 24" style="enable-background:new 0 0 24 24;" xml:space="preserve">
<style type="text/css">
	.st0{fill:#212121;}
</style>
<title>twitter</title>
<desc>Created with Sketch.</desc>
<path id="Shape" class="st0" d="M19.2263756,7.8862748c0.0121861,0.1705499,0.0121861,0.3411374,0.0121861,0.5116878
	c0,5.2019997-3.959362,11.1959248-11.1959238,11.1959248c-2.2294502,0-4.3005004-0.6457119-6.0426378-1.7664757
	c0.3167624,0.0365257,0.6213,0.0487137,0.9502499,0.0487137c1.8395627,0,3.5329874-0.6212997,4.8852749-1.6812
	c-1.72995-0.036562-3.1796999-1.1695499-3.6792002-2.7289505c0.2436752,0.0365248,0.4873128,0.0608997,0.743175,0.0608997
	c0.3532877,0,0.7066126-0.0487499,1.0355253-0.1339874c-1.8030376-0.3655119-3.1553626-1.9492493-3.1553626-3.8619375V9.4822378
	c0.5238373,0.292387,1.1330249,0.4751244,1.7786622,0.4994621C3.498425,9.2750874,2.8040376,8.0690126,2.8040376,6.7045374
	c0-0.7309499,0.1948874-1.401,0.536025-1.985775c1.9370623,2.3878126,4.8487496,3.947175,8.1136875,4.1177626
	c-0.0608997-0.292387-0.0974617-0.5969248-0.0974617-0.9014997C11.356288,5.7664752,13.1106129,4,15.2913122,4
	c1.132987,0,2.1563253,0.4751248,2.8751249,1.2426376c0.8893127-0.1705503,1.7420998-0.4995003,2.4974632-0.9502501
	c-0.2924252,0.9137249-0.9137249,1.6812377-1.72995,2.1685123c0.7918873-0.0852375,1.5593987-0.304575,2.265974-0.6091123
	C20.6639748,6.6314502,19.9938869,7.3258376,19.2263756,7.8862748z"/>
</svg>
