<?xml version="1.0" encoding="utf-8"?>
<!-- Generator: Adobe Illustrator 19.2.1, SVG Export Plug-In . SVG Version: 6.00 Build 0)  -->
<svg version="1.1" id="Layer_1" xmlns="http://www.w3.org/2000/svg" xmlns:xlink="http://www.w3.org/1999/xlink" x="0px" y="0px"
	 viewBox="0 0 24 24" style="enable-background:new 0 0 24 24;" xml:space="preserve">
<style type="text/css">
	.st0{fill:#212121;}
</style>
<title>vimeo</title>
<desc>Created with Sketch.</desc>
<path id="Shape" class="st0" d="M19.2000008,3H4.8000002C3.8075893,3,3,3.8075893,3,4.8000002v14.4000006
	C3,20.1924114,3.8075893,21,4.8000002,21h14.4000006C20.1924114,21,21,20.1924114,21,19.2000008V4.8000002
	C21,3.8075893,20.1924114,3,19.2000008,3z M18.1473217,8.9785719c-0.0562496,1.265624-0.9401779,3.001339-2.6517859,5.1991072
	C13.7276783,16.475893,12.2290182,17.625,11.0075893,17.625c-0.7593746,0-1.3982143-0.6991062-1.9245539-2.1013393
	c-1.0245533-3.748661-1.4624996-5.9464283-2.3062496-5.9464283c-0.0964289,0-0.4379468,0.2049103-1.0205359,0.610714
	l-0.610714-0.7874994C6.6441965,8.0825891,8.0745535,6.6200891,8.9705353,6.539732
	c1.0125008-0.0964284,1.6352682,0.5946431,1.8683043,2.0772324c0.8316965,5.2714281,1.2013388,6.0669641,2.7160711,3.680357
	c0.5424109-0.8598213,0.8357143-1.5147324,0.8758926-1.9647322c0.140625-1.3339281-1.0406246-1.241518-1.8401785-0.8999996
	c0.6388397-2.0933037,1.8602676-3.1098218,3.6642866-3.0535717C17.5928574,6.4151788,18.2236614,7.2830358,18.1473217,8.9785719z"/>
</svg>
